<?xml version="1.0" encoding="utf-8"?>
<svg version="1.1" xmlns:xlink="http://www.w3.org/1999/xlink" width="36px" height="36px" xmlns="http://www.w3.org/2000/svg">
  <g transform="matrix(1 0 0 1 -265 -258 )">
    <path d="M 35.8107497970779 24.4318131087662  L 24.3525517451299 20.5786881087662  C 24.3525517451299 20.5786881087662  25.2331473214286 19.2605570211039  26.1730976055195 16.6762530438312  C 27.113184862013 14.0917664366883  27.2478287337662 12.6725953733766  27.2478287337662 12.6725953733766  L 19.8305905032468 12.6114600243507  L 19.8305905032468 10.0780641233766  L 28.8131950081169 10.0147372159091  L 28.8131950081169 8.22373173701299  L 19.828809862013 8.22373173701299  L 19.828809862013 4.14697646103896  L 15.4293476055195 4.14697646103896  L 15.4293476055195 8.22391436688312  L 7.04828023538961 8.22391436688312  L 7.04828023538961 10.0149198457792  L 15.4293476055195 9.95538250811689  L 15.4293476055195 12.6725953733766  L 8.70674208603896 12.6725953733766  L 8.70674208603896 14  L 22.5438768262987 14  C 22.5438768262987 14.0915838068182  22.3915178571429 15.2432021103896  21.8610693993506 16.676070413961  C 21.330757913961 18.1088017451299  20.7844663149351 19.3635602678571  20.7844663149351 19.3635602678571  C 20.7844663149351 19.3635602678571  14.2874086850649 17.0896357548701  10.8637834821429 17.0896357548701  C 7.44015827922077 17.0896357548701  3.27633421266233 18.4649756493507  2.87263088474026 22.4566710633117  C 2.47084517045454 26.4463575487013  4.81220576298701 28.6074624594156  8.11082081980519 29.4029525162338  C 11.4098467938312 30.2025517451299  14.4554738230519 29.3950537743506  17.1071682224026 28.0968293425325  C 19.759273538961 26.8005681818182  22.3614752435065 23.8537439123377  22.3614752435065 23.8537439123377  L 35.7156452922078 30.3389762581169  C 35.1708603896104 33.5030387581169  32.4252485795455 35.8139458198052  29.2146154626623 35.8107497970779  L 6.78515625 35.8107497970779  C 3.14561688311688 35.8143110795455  0.192583198051949 32.8666193181818  0.189204545454545 29.2272169237013  L 0.189204545454545 6.78533887987013  C 0.185825892857143 3.14552556818182  3.13379159902597 0.192446225649351  6.77323965097403 0.189204545454547  L 29.2147524350649 0.189204545454547  C 32.8542918019481 0.185871550324677  35.8075081168831 3.13365462662338  35.8107041396104 6.77314833603896  L 35.8107041396104 24.4318131087662  Z M 19.1110744724026 22.1993912337662  C 19.1110744724026 22.1993912337662  14.9424563717532 27.4619622564935  10.030762987013 27.4619622564935  C 5.11696935876624 27.4619622564935  4.08533887987013 24.9614397321429  4.08533887987013 23.163083400974  C 4.08533887987013 21.3669186282468  5.10683340097403 19.412596387987  9.28768770292208 19.1300223214286  C 13.466213474026 18.8478591720779  19.1131747159091 22.1993912337662  19.1131747159091 22.1993912337662  L 19.1110288149351 22.1993912337662  Z " fill-rule="nonzero" fill="#02a9f1" stroke="none" transform="matrix(1 0 0 1 265 258 )" />
  </g>
</svg>