<?xml version="1.0" encoding="utf-8"?>
<svg version="1.1" xmlns:xlink="http://www.w3.org/1999/xlink" width="10px" height="6px" xmlns="http://www.w3.org/2000/svg">
  <g transform="matrix(1 0 0 1 -1870 -26 )">
    <path d="M 5 5.69870995566895  C 5.15430412984407 5.69870995566895  5.30221840283243 5.63631600634166  5.41087962962963 5.525390625  L 9.5775462962963 1.306640625  C 9.68710825803356 1.1966203618325  9.74873574850027 1.04685290110052  9.74873574850027 0.890615092132672  C 9.74873574850027 0.567010746528692  9.48964127502271 0.304677592132672  9.17003204479656 0.304677592132672  C 9.16891024497312 0.304677592132672  9.16778844752112 0.304680894769076  9.16666666666667 0.3046875  L 0.833333333333334 0.3046875  C 0.832211552479085 0.304680894769078  0.831089755026678 0.304677592132672  0.829967955203438 0.304677592132672  C 0.510358724977285 0.304677592132672  0.251264251499734 0.567010746528692  0.251264251499734 0.890615092132672  C 0.251264251499734 1.04685290110052  0.312891741966439 1.1966203618325  0.422453703703704 1.306640625  L 4.58912037037037 5.525390625  C 4.69778159716757 5.63631600634166  4.84569587015593 5.69870995566895  5 5.69870995566895  Z " fill-rule="nonzero" fill="#69758a" stroke="none" transform="matrix(1 0 0 1 1870 26 )" />
  </g>
</svg>