<?xml version="1.0" encoding="utf-8"?>
<svg version="1.1" xmlns:xlink="http://www.w3.org/1999/xlink" width="16px" height="16px" xmlns="http://www.w3.org/2000/svg">
  <g transform="matrix(1 0 0 1 -1715 -21 )">
    <path d="M 8 15  C 11.8659932488156 15  15 11.8659932488156  15 8  C 15 4.13400675118445  11.8659932488156 1  8 1  C 4.13400675118445 1  1 4.13400675118445  1 8  C 1 11.8659932488156  4.13400675118445 15  8 15  Z M 8 16  C 3.58172200135365 16  0 12.4182779986463  0 8  C 0 3.58172200135365  3.58172200135365 0  8 0  C 12.4182779986463 0  16 3.58172200135365  16 8  C 16 12.4182779986463  12.4182779986463 16  8 16  Z M 5.899428578125 6.734857140625  C 5.496000015625 6.734857140625  5.333714296875 6.297142859375  5.33371428125 6.297142859375  C 5.34971428125 5.689142859375  5.42171428125 5.227428578125  5.548571421875 4.910857140625  C 5.674285703125 4.593142859375  5.87771428125 4.310857140625  6.156571421875 4.06171428125  C 6.42701966730091 3.81756500990828  6.74376317053009 3.63023940642335  7.088 3.510857140625  C 7.43631694485857 3.39170010991902  7.80215597342076 3.33182149333215  8.17028571875 3.33371428125  C 8.939428578125 3.33371428125  9.57828571875 3.558857140625  10.09028571875 4.011428578125  C 10.601142859375 4.46285715625  10.856 5.064  10.856 5.816  C 10.856 6.153142859375  10.790857140625 6.459428578125  10.659428578125 6.734857140625  C 10.529142859375 7.009142859375  10.25028571875 7.352  9.824 7.76  C 9.396571421875 8.17028571875  9.11428571875 8.46171428125  8.974857140625 8.63428571875  C 8.82985361122418 8.81850606838024  8.72230824828765 9.02932604195303  8.65828571875 9.254857140625  C 8.58628571875 9.494857140625  8.555428578125 9.81828571875  8.563428578125 10.224  L 7.449142859375 10.224  C 7.449142859375 9.750857140625  7.486857140625 9.37371428125  7.563428578125 9.09028571875  C 7.63885715625 8.806857140625  7.753142859375 8.56  7.905142859375 8.34971428125  C 8.057142859375 8.138285703125  8.331428578125 7.8274285625  8.728 7.41828571875  C 9.124571421875 7.009142859375  9.379428578125 6.710857140625  9.49371428125 6.52571428125  C 9.608 6.3394285625  9.665142859375 6.062857140625  9.665142859375 5.696  C 9.66689944080537 5.33196758130588  9.52621193683535 4.98168440815604  9.273142859375 4.72  C 9.01028571875 4.43771428125  8.630857140625 4.296  8.132571421875 4.296  C 7.00914284375 4.296  6.448 4.963428578125  6.448 6.297142859375  C 6.448 6.297142859375  6.302857140625 6.734857140625  5.899428578125 6.734857140625  Z M 8.651428578125 12.54171428125  L 8.652571421875 12.54171428125  L 7.422857140625 12.54171428125  L 7.422857140625 11.25028571875  L 8.651428578125 11.25028571875  L 8.651428578125 12.54171428125  Z " fill-rule="nonzero" fill="#555555" stroke="none" transform="matrix(1 0 0 1 1715 21 )" />
  </g>
</svg>