<?xml version="1.0" encoding="utf-8"?>
<svg version="1.1" xmlns:xlink="http://www.w3.org/1999/xlink" width="20px" height="21px" xmlns="http://www.w3.org/2000/svg">
  <g transform="matrix(1 0 0 1 -25 -160 )">
    <path d="M 16.8333333333333 20.1710526315789  L 16.7407407335069 20  L 3 20  C 1.73470194384287 20.2340264405174  0.653571702992347 19.2735188895074  0.574074066840278 18.0157894736842  L 0.574074066840278 2.44999999280428  C 0.653571702992348 1.19227057698112  1.73470194384287 0.231763025971079  3 0.294736834909539  L 16.7407407335069 0.294736834909539  C 16.8098550434225 0.288538045605445  16.8792146170844 0.285433948115497  16.9486092891657 0.285433948115497  C 18.1731413117409 0.285433948115497  19.1858364585448 1.23410447368266  19 2.44999999280428  L 19 18.0157894736842  C 19.179761630341 19.2735188895074  18.0986313894905 20.2340264405174  16.8333333333333 20.1710526315789  Z M 16.2222222222222 2  L 3.5 2  C 2.93403283469505 2.0054069050027  2.45587632861975 2.44004335536673  2.42592593315972 3.00263157175164  L 2.42592593315972 17.426315782278  C 2.45587631721407 17.9889040072286  2.93403282668142 18.4235404702862  3.5 18  L 16.2222222222222 18  C 16.7986776727652 18.43421274057  17.293692622566 17.9992509169998  17 17.426315782278  L 17 3.02105263877467  C 17.304574020648 2.4627703380737  16.8411334523654 2.02478707568014  16.2791609062919 2.02478707568014  C 16.2601709763402 2.02478707568014  16.2411845042648 2.025296834886  16.2222222222222 2  Z " fill-rule="nonzero" fill="#ffffff" stroke="none" transform="matrix(1 0 0 1 25 160 )" />
  </g>
</svg>