<?xml version="1.0" encoding="utf-8"?>
<svg version="1.1" xmlns:xlink="http://www.w3.org/1999/xlink" width="20px" height="22px" xmlns="http://www.w3.org/2000/svg">
  <g transform="matrix(1 0 0 1 -25 -89 )">
    <path d="M 17.6605 19.1885  L 17.6605 10.49  C 17.6609285273318 10.3005994044348  17.5890338688691 10.1181801217684  17.4595 9.98  L 10.2205 2.20775  C 10.0817100620069 2.07635123010247  9.89787372009309 2.00308506755872  9.70675 2.003  L 9.67825 2.003  C 9.47951150676265 2.01015018260184  9.29174876315834 2.09593833269692  9.15625 2.2415  L 1.951 9.98  C 1.82146613113086 10.1181801217684  1.74957147266822 10.3005994044348  1.75 10.49  L 1.75 19.18775  C 1.75 19.6019635623731  2.08578643762691 19.93775  2.5 20  L 16.9105 20  C 17.3247135623731 19.93775  17.6605 19.6019635623731  17.6605 19.18775  Z M 18.55675 8.95775  C 18.946 9.3755  19.1605 9.92075  19.1605 10.49075  L 19.1605 19.1885  C 19.1605 20.429  18.151 21.4385  16.9105 21  L 2.5 21  C 1.2595 21.4385  0.25 20.429  0.25 19.1885  L 0.25 10.49  C 0.25 9.92  0.4645 9.37475  0.85375 8.957  L 8.059 1.2185  C 8.46481342858903 0.780538651384666  9.0289938253099 0.523160040530197  9.62575 0.50375  C 10.219 0.46475  10.7995 0.6965  11.23825 1.106  C 11.27125 1.136  11.3065 1.17125  11.341 1.2065  C 11.3455 1.211  11.34925 1.214  11.35225 1.2185  L 18.55675 8.957  Z M 8.6605 12.62525  L 10.723 12.62525  C 11.1372135623731 12.62525  11.473 12.9610364376269  11.473 13.37525  C 11.473 13.7894635623731  11.1372135623731 14.12525  10.723 14.12525  L 8.6605 14.12525  C 8.2462864376269 14.12525  7.9105 13.7894635623731  7.9105 13.37525  C 7.9105 12.9610364376269  8.2462864376269 12.62525  8.6605 12.62525  Z " fill-rule="nonzero" fill="#ffffff" stroke="none" transform="matrix(1 0 0 1 25 89 )" />
  </g>
</svg>