<?xml version="1.0" encoding="utf-8"?>
<svg version="1.1" xmlns:xlink="http://www.w3.org/1999/xlink" width="21px" height="22px" xmlns="http://www.w3.org/2000/svg">
  <g transform="matrix(1 0 0 1 -25 -227 )">
    <path d="M 1.95790952690972 6.67579889648438  C 4.25137356770833 7.66593221679687  7.700174609375 9.14269282226563  7.84991705729167 9.20682631184896  C 8.14145685763889 9.3365067578125  8.46533131510417 9.86617611328125  8.46551608072917 10.4218702473958  L 8.46551608072917 18.9796153157552  C 8.46551608072917 19.1787505957031  8.33570234375 19.2847897949219  8.24197144097222 19.2847897721354  C 8.22077573784722 19.2847897721354  8.19892016059028 19.2797732877604  8.17519047309028 19.269490875651  C 5.78920972222222 18.2342922981771  2.56717358940972 16.8067819791667  2.53491812065972 16.7924808105469  L 2.53280646701389 16.7915384765625  L 2.53069483506944 16.7906238736979  C 2.22020297309028 16.6548460449219  1.95788313802083 16.0983204557292  1.95788311631944 15.5753582259115  L 1.95788311631944 6.67579889648438  Z M 8.22180516493055 8.26306088216146  C 8.22180516493055 8.26308859049479  2.90543365885417 5.98698759440104  1 5.14939995117188  L 1 15.5753859342448  C 0.985230316840278 16.3929630566406  1.38805412326389 17.3972866666667  2.15672144097222 17.733446969401  C 2.15672144097222 17.733446969401  5.38662348090278 19.1646988704427  7.80375108506944 20.2133948697917  C 7.9495341796875 20.2766414648437  8.09764010416667 20.3061029427083  8.24197144097222 20.3061029427083  C 8.87525555555556 20.3061029427083  9.43819529079861 19.7399601009115  9.43819526909722 18.9795875846354  L 9.43819526909722 10.421842516276  C 9.43785212673611 9.49456778320313  8.91484898003472 8.56643384114583  8.22180516493055 8.26306088216146  Z M 12.0778908854167 9.20679858072917  C 12.2276333333333 9.14269282226562  15.676434375 7.66590448567708  17.9698984157986 6.67579889648438  L 17.9698984157986 15.5753582259115  C 17.9698984157986 16.0982927246094  17.7075785807292 16.6548183365885  17.39708671875 16.7906238736979  L 17.3949750651042 16.7915384765625  L 17.3928898003472 16.7924808105469  C 17.3606079427083 16.8067819563802  14.1385981987847 18.2342645670573  11.7525910590278 19.269490875651  C 11.7288613715278 19.2797732877604  11.7070321831597 19.2847897949219  11.6858365017361 19.2847897721354  C 11.5921055989583 19.2847897721354  11.4622918619792 19.1787228645833  11.4622918619792 18.9796153157552  L 11.4622918619792 10.422230546875  C 11.4625030164931 9.86617611328125  11.7863774739583 9.33647904947917  12.0778908854167 9.20679858072917  Z M 19 5.14939995117188  L 18.9425776041667 5.14939995117188  C 17.0223742621528 5.98698759440104  11.7060027560764 8.26308859049479  11.7060027560764 8.26308861328125  C 11.0129589192708 8.56646157226563  10.4899294053819 9.49459549153646  10.4896126519097 10.4218702473958  L 10.4896126519097 18.9796153157552  C 10.4896126519097 19.7399323697917  11.0526051866319 20.3061306510417  11.6858365017361 20.3061306510417  C 11.8302206380208 20.3061306510417  11.9782209635417 20.2766968815104  12.1240568576389 20.213422578125  C 14.5411844618056 19.1646988704427  17.7710864800347 17.7334746777344  17.7710864800347 17.7334746777344  C 18.5397537977431 17.397314375  18.9426040147569 16.392990764974  19 15.5754136425781  L 19 5.14939995117188  Z M 8.94911052517361 1.86637010091146  C 9.19709752604167 1.76204927408854  9.57645562065972 1.69977272135417  9.96391716579861 1.69977274414062  C 10.3513787109375 1.69977274414062  10.7307368055556 1.762049296875  10.9786973958333 1.86637010091146  L 16.3271923828125 4.11636319335938  L 10.9786973958333 6.36635626302083  C 10.7307103949653 6.47067708984375  10.3513523003472 6.53295364257812  9.96391716579861 6.53295364257812  C 9.57648203125 6.53295364257812  9.19712393663194 6.47067708984375  8.94913693576389 6.36635626302083  L 3.60061553819444 4.11636319335938  L 8.94911052517361 1.86637010091146  Z M 11.3404495876736 0.91830880859375  C 10.9603260199653 0.758390846354167  10.4621083984375 0.678459573567708  9.96391716579861 0.678459573567708  C 9.46569952256944 0.678459573567708  8.96750828993056 0.7584185546875  8.58738474392361 0.91830880859375  L 0.985230316840278 4.11636319335938  L 8.58735833333333 7.31441755533854  C 8.96748190104167 7.47433551757813  9.46569952256944 7.55429449869792  9.96389077690972 7.55429449869792  C 10.4621084201389 7.55429449869792  10.9602996527778 7.47433551757813  11.3404231987847 7.31441755533854  L 18.9425512152778 4.11636319335938  L 11.3404495876736 0.91830880859375  Z " fill-rule="nonzero" fill="#ffffff" stroke="none" transform="matrix(1 0 0 1 25 227 )" />
  </g>
</svg>