<?xml version="1.0" standalone="no"?><!DOCTYPE svg PUBLIC "-//W3C//DTD SVG 1.1//EN" "http://www.w3.org/Graphics/SVG/1.1/DTD/svg11.dtd"><svg class="icon" width="32px" height="31.94px" viewBox="0 0 1026 1024" version="1.1" xmlns="http://www.w3.org/2000/svg"><path fill="#FFFFFF" d="M343.8592 938.6496l117.504 0c15.6672 0 28.416-13.6704 28.416-30.3104L489.7792 465.408l-79.36 44.1856L315.4432 465.408l0 442.9312C315.4432 924.9792 328.2432 938.6496 343.8592 938.6496L343.8592 938.6496 343.8592 938.6496zM1.5872 169.0624 1.5872 169.0624 47.9744 85.3504 409.6 314.0096 529.7152 243.456 557.2096 227.3792 581.12 249.1904 913.8688 553.472 954.624 503.5008 990.1056 614.4512 1025.5872 725.4016 917.9648 702.7712 810.2912 680.2432 854.0672 626.5856 545.8944 344.9856 430.6944 412.6208 407.9616 425.984 385.6384 411.7504 1.5872 169.0624ZM216.3712 938.6496 216.3712 938.6496c15.616 0 28.3648-13.6704 28.3648-30.3104L244.736 435.8656 70.4512 325.6832l0 582.656c0 16.64 12.7488 30.3104 28.3648 30.3104L216.3712 938.6496 216.3712 938.6496zM706.3552 938.6496 706.3552 938.6496c15.6672 0 28.4672-13.6704 28.4672-30.3104l0-287.0784-2.0992 1.2288L560.8448 465.408c-0.3072 1.4848-0.3584 3.0208-0.3584 4.5568l0 438.3744c0 16.64 12.8 30.3104 28.416 30.3104L706.3552 938.6496 706.3552 938.6496zM833.8944 938.6496l117.4528 0c15.6672 0 28.4672-13.6704 28.4672-30.3104l0-112.64-174.2848-39.936 0 152.5248C805.4784 924.9792 818.2784 938.6496 833.8944 938.6496L833.8944 938.6496z" /></svg>