<?xml version="1.0" encoding="utf-8"?>
<svg version="1.1" xmlns:xlink="http://www.w3.org/1999/xlink" width="24px" height="23px" xmlns="http://www.w3.org/2000/svg">
  <defs>
    <mask fill="white" id="clip448">
      <path d="M 11.8133461538462 11.5877538461538  C 11.8133461538462 11.5877538461538  11.6362461538462 11.5877538461538  11.6362461538462 11.5877538461538  C 15.2867 11.5877538461538  18.4228384615385 8.87941538461538  18.4228384615385 5.75760769230769  C 18.4228384615385 2.63509230769231  15.2867 0.104561538461537  11.6362461538462 0.104561538461537  C 7.98614615384615 0.104561538461537  5.0264 2.63509230769231  5.02675384615385 5.75760769230769  C 5.02675384615385 8.87941538461538  8.16306923076923 11.5877538461538  11.8133461538462 11.5877538461538  Z M 23.3807538461538 20.7744846153846  C 23.3807538461538 16.7417  19.5583307692308 13.2957692307692  14.8431538461538 13.2957692307692  C 14.8431538461538 13.2957692307692  9.15755384615385 13.2957692307692  9.15755384615385 13.2957692307692  C 4.4422 13.2957692307692  0.619246153846154 16.7417  0.619246153846154 20.7743076923077  C 0.619246153846154 20.7743076923077  0.619246153846154 21.2456307692308  0.619246153846154 21.2456307692308  C 0.619246153846154 22.8938461538462  4.4422 22.8954384615385  9.15755384615385 22.8954384615385  C 9.15755384615385 22.8954384615385  14.8431538461538 22.8954384615385  14.8431538461538 22.8954384615385  C 19.5579769230769 22.8954384615385  23.3807538461538 22.8345769230769  23.3807538461538 21.2456307692308  C 23.3807538461538 21.2456307692308  23.3807538461538 20.7744846153846  23.3807538461538 20.7744846153846  Z " fill-rule="evenodd" />
    </mask>
  </defs>
  <g transform="matrix(1 0 0 1 -23 -295 )">
    <path d="M 11.8133461538462 11.5877538461538  C 11.8133461538462 11.5877538461538  11.6362461538462 11.5877538461538  11.6362461538462 11.5877538461538  C 15.2867 11.5877538461538  18.4228384615385 8.87941538461538  18.4228384615385 5.75760769230769  C 18.4228384615385 2.63509230769231  15.2867 0.104561538461537  11.6362461538462 0.104561538461537  C 7.98614615384615 0.104561538461537  5.0264 2.63509230769231  5.02675384615385 5.75760769230769  C 5.02675384615385 8.87941538461538  8.16306923076923 11.5877538461538  11.8133461538462 11.5877538461538  Z M 23.3807538461538 20.7744846153846  C 23.3807538461538 16.7417  19.5583307692308 13.2957692307692  14.8431538461538 13.2957692307692  C 14.8431538461538 13.2957692307692  9.15755384615385 13.2957692307692  9.15755384615385 13.2957692307692  C 4.4422 13.2957692307692  0.619246153846154 16.7417  0.619246153846154 20.7743076923077  C 0.619246153846154 20.7743076923077  0.619246153846154 21.2456307692308  0.619246153846154 21.2456307692308  C 0.619246153846154 22.8938461538462  4.4422 22.8954384615385  9.15755384615385 22.8954384615385  C 9.15755384615385 22.8954384615385  14.8431538461538 22.8954384615385  14.8431538461538 22.8954384615385  C 19.5579769230769 22.8954384615385  23.3807538461538 22.8345769230769  23.3807538461538 21.2456307692308  C 23.3807538461538 21.2456307692308  23.3807538461538 20.7744846153846  23.3807538461538 20.7744846153846  Z " fill-rule="nonzero" fill="#ffffff" stroke="none" transform="matrix(1 0 0 1 23 295 )" />
    <path d="M 11.8133461538462 11.5877538461538  C 11.8133461538462 11.5877538461538  11.6362461538462 11.5877538461538  11.6362461538462 11.5877538461538  C 15.2867 11.5877538461538  18.4228384615385 8.87941538461538  18.4228384615385 5.75760769230769  C 18.4228384615385 2.63509230769231  15.2867 0.104561538461537  11.6362461538462 0.104561538461537  C 7.98614615384615 0.104561538461537  5.0264 2.63509230769231  5.02675384615385 5.75760769230769  C 5.02675384615385 8.87941538461538  8.16306923076923 11.5877538461538  11.8133461538462 11.5877538461538  Z " stroke-width="0.353846153846154" stroke="#979797" fill="none" transform="matrix(1 0 0 1 23 295 )" mask="url(#clip448)" />
    <path d="M 23.3807538461538 20.7744846153846  C 23.3807538461538 16.7417  19.5583307692308 13.2957692307692  14.8431538461538 13.2957692307692  C 14.8431538461538 13.2957692307692  9.15755384615385 13.2957692307692  9.15755384615385 13.2957692307692  C 4.4422 13.2957692307692  0.619246153846154 16.7417  0.619246153846154 20.7743076923077  C 0.619246153846154 20.7743076923077  0.619246153846154 21.2456307692308  0.619246153846154 21.2456307692308  C 0.619246153846154 22.8938461538462  4.4422 22.8954384615385  9.15755384615385 22.8954384615385  C 9.15755384615385 22.8954384615385  14.8431538461538 22.8954384615385  14.8431538461538 22.8954384615385  C 19.5579769230769 22.8954384615385  23.3807538461538 22.8345769230769  23.3807538461538 21.2456307692308  C 23.3807538461538 21.2456307692308  23.3807538461538 20.7744846153846  23.3807538461538 20.7744846153846  Z " stroke-width="0.353846153846154" stroke="#979797" fill="none" transform="matrix(1 0 0 1 23 295 )" mask="url(#clip448)" />
  </g>
</svg>