<?xml version="1.0" encoding="utf-8"?>
<svg version="1.1" xmlns:xlink="http://www.w3.org/1999/xlink" width="36px" height="32px" xmlns="http://www.w3.org/2000/svg">
  <g transform="matrix(1 0 0 1 -265 -135 )">
    <path d="M 13.6688654782717 20.067751375528  C 11.5223616851898 21.2178427460864  11.2043820086164 19.4221271520358  11.2043820086164 19.4221271520358  L 8.5153390984016 13.3894194739271  C 7.48026042707293 10.522771928579  9.41072600836664 12.0962712008803  9.41072600836664 12.0962712008803  C 9.41072600836664 12.0962712008803  11.0666325861638 13.3007292605871  12.3243596871878 14.0350436974193  C 13.5801757773477 14.7693264704838  15.0134025974026 14.2505473004153  15.0134025974026 14.2505473004153  L 32.595078484016 6.44979816122963  C 29.3512471903097 2.56845351602712  23.993900536963 0.0318057576940833  17.9270049481768 0.0318057576940833  C 8.02565039647852 0.0318057576940833  0 6.78356593660147  0 15.1135749529658  C 0 19.9047146356182  2.65696299013487 24.1684309396188  6.79621252185315 26.9320762486245  L 6.0508243006993 31.05751687906  C 6.0508243006993 31.05751687906  5.68663575487013 32.2619432749991  6.94718238011988 31.7031411025523  C 7.80673000437063 31.3216560292499  9.99759431193806 29.9579608817578  11.3015616102647 29.1273252635689  C 13.3518569711538 29.8139540662383  15.5851707823427 30.195407475773  17.9270049481768 30.195407475773  C 27.8274509865135 30.195407475773  35.8540412244006 23.4436472968656  35.8540412244006 15.1136382805012  C 35.8540412244006 12.7009225089631  35.1775120504496 10.4217011820667  33.9792455825425 8.4000012779099  C 28.3775088349151 11.6395213517447  15.347422234016 19.1694502857548  13.6688654782717 20.0677830392957  Z " fill-rule="nonzero" fill="#09bb07" stroke="none" transform="matrix(1 0 0 1 265 135 )" />
  </g>
</svg>